<svg xmlns="http://www.w3.org/2000/svg" viewBox="0 0 29.34 28.09"><defs><style>.cls-1{fill:#57cc99;}.cls-2{fill:#80ed99;}</style></defs><title>Star</title><g id="Layer_2" data-name="Layer 2"><g id="Layer_1-2" data-name="Layer 1"><path class="cls-1" d="M29.34,10.79V11a.45.45,0,0,1-.1.3,3.16,3.16,0,0,1-.45.51c-2.24,1.92-4.5,3.82-6.75,5.72a.49.49,0,0,0-.2.58l.93,3.68q.64,2.57,1.28,5.11c.19.74-.21,1.31-.88,1.23a1.35,1.35,0,0,1-.5-.2c-2.56-1.6-5.11-3.19-7.66-4.8a.53.53,0,0,0-.66,0q-3.81,2.41-7.64,4.79a1.54,1.54,0,0,1-.49.22.84.84,0,0,1-1-1.07c.49-2,1-4,1.48-5.94C7,20,7.25,19,7.52,18a.35.35,0,0,0-.13-.41l-7-5.9a.88.88,0,0,1-.36-1A.92.92,0,0,1,1,10L7.15,9.6c.77-.06,1.55-.12,2.33-.16l.5,0a.42.42,0,0,0,.43-.31C11.53,6.28,12.67,3.47,13.8.66c.2-.47.44-.66.87-.66a.85.85,0,0,1,.87.65l3.4,8.46a.42.42,0,0,0,.41.3c2.37.15,4.73.32,7.09.49.61,0,1.22.11,1.83.12a1.11,1.11,0,0,1,1,.51A.48.48,0,0,1,29.34,10.79Z"/><path class="cls-2" d="M29.34,10.79V11a.45.45,0,0,1-.1.3,3.16,3.16,0,0,1-.45.51c-2.24,1.92-4.5,3.82-6.75,5.72a.49.49,0,0,0-.2.58l.93,3.68h-.2a13.12,13.12,0,0,1-13-11.81A.48.48,0,0,1,10,9.41h0a.42.42,0,0,0,.43-.31C11.53,6.28,12.67,3.47,13.8.66c.2-.47.44-.66.87-.66a.85.85,0,0,1,.87.65l3.4,8.46a.42.42,0,0,0,.41.3c2.37.15,4.73.32,7.09.49.61,0,1.22.11,1.83.12a1.11,1.11,0,0,1,1,.51A.48.48,0,0,1,29.34,10.79Z"/></g></g></svg>